<svg xmlns="http://www.w3.org/2000/svg" viewBox="0 0 66.25 14.65"><defs><style>.cls-1{fill:#d5742d;}</style></defs><g id="Layer_2" data-name="Layer 2"><g id="Layer_1-2" data-name="Layer 1"><path class="cls-1" d="M13.41,12.79s0-.71,0-.73a.38.38,0,0,0-.38-.38.89.89,0,0,0-.17,0L7.44,13.13a.27.27,0,0,1-.2,0L3,11.58H3a1.11,1.11,0,0,1-.52-.93,1.26,1.26,0,0,1,0-.28h0s0-.06,0-.09a.74.74,0,0,1,.58-.72.5.5,0,0,1,.17,0h.15l3.94,1.39a.45.45,0,0,0,.2,0l5.52-1.54h.11a.38.38,0,0,0,.2-.4.39.39,0,0,0-.27-.3.4.4,0,0,0-.22,0L7.56,10.05a.57.57,0,0,1-.29,0L3.32,8.66h0L3,8.54H3a1.1,1.1,0,0,1-.52-.93c0-.1,0-.34,0-.37a.75.75,0,0,1,.75-.74h.05l.1,0h0L7.32,7.85l.07,0h.19l5.49-1.49a.36.36,0,0,0,.3-.23v0h0s0-.06,0-.08h0V6a.38.38,0,0,0-.28-.36.31.31,0,0,0-.16,0h0L7.56,7.09a.21.21,0,0,1-.11,0L3,5.53H3a1.11,1.11,0,0,1-.52-.94c0-.09,0-.33,0-.36a.76.76,0,0,1,.75-.75h.15L7.26,4.92l.15,0h.13l5.55-1.48h0a.36.36,0,0,0,.29-.37.37.37,0,0,0-.32-.37L8.52,1.12A.32.32,0,0,1,8.29.81V.35A.34.34,0,0,0,7.84,0L.33,2.42a.37.37,0,0,0-.24.33L0,11.82H0a.38.38,0,0,0,.27.37h0l7,2.44h.18l.07,0,5-1.33.61-.14a.39.39,0,0,0,.25-.36Z"/><path class="cls-1" d="M19.41,10a.94.94,0,0,1-.26.73,1,1,0,0,1-.73.23h-.37v-.6h.24a.43.43,0,0,0,.31-.09.34.34,0,0,0,.09-.27V5.88h.72Zm-.68-4.73A.44.44,0,0,1,18.6,5a.41.41,0,0,1,.13-.32.45.45,0,0,1,.33-.14.45.45,0,0,1,.32.14.41.41,0,0,1,.13.32.44.44,0,0,1-.13.33.44.44,0,0,1-.32.13A.44.44,0,0,1,18.73,5.29Z"/><path class="cls-1" d="M21.4,6.67A1.47,1.47,0,0,1,22,6.05a1.53,1.53,0,0,1,.82-.23,1.58,1.58,0,0,1,.71.16,1.41,1.41,0,0,1,.49.4v-.5h.72V9.34H24V8.82a1.36,1.36,0,0,1-.5.41A1.61,1.61,0,0,1,22,9.16a1.57,1.57,0,0,1-.58-.64,1.88,1.88,0,0,1-.22-.93A1.87,1.87,0,0,1,21.4,6.67ZM23.86,7a1,1,0,0,0-.9-.54,1,1,0,0,0-.51.14,1,1,0,0,0-.39.39,1.24,1.24,0,0,0-.15.62,1.28,1.28,0,0,0,.15.63,1,1,0,0,0,.39.41.94.94,0,0,0,.51.14,1,1,0,0,0,.52-.14,1,1,0,0,0,.38-.4,1.38,1.38,0,0,0,0-1.25Zm-.14-2-1.39.68V5.11l1.39-.77Z"/><path class="cls-1" d="M30.16,4.69V9.34h-.72V4.69Z"/><path class="cls-1" d="M35.31,7.87H32.67a.94.94,0,0,0,1,.92.84.84,0,0,0,.82-.48h.77a1.48,1.48,0,0,1-.57.78,1.67,1.67,0,0,1-1,.3,1.78,1.78,0,0,1-.89-.22,1.61,1.61,0,0,1-.61-.63,1.88,1.88,0,0,1-.22-.93,2,2,0,0,1,.21-.94A1.61,1.61,0,0,1,32.75,6a1.87,1.87,0,0,1,.9-.22,1.66,1.66,0,0,1,.87.22,1.45,1.45,0,0,1,.6.6,1.79,1.79,0,0,1,.21.88A1.89,1.89,0,0,1,35.31,7.87Zm-.72-.57a.82.82,0,0,0-.29-.64,1,1,0,0,0-.68-.24.88.88,0,0,0-.63.24,1,1,0,0,0-.32.64Z"/><path class="cls-1" d="M40.24,5.88V9.34h-.72V8.93a1.27,1.27,0,0,1-.44.34,1.43,1.43,0,0,1-.58.12,1.57,1.57,0,0,1-.73-.17,1.17,1.17,0,0,1-.51-.5,1.59,1.59,0,0,1-.19-.81v-2h.71V7.81a1,1,0,0,0,.23.71.94.94,0,0,0,1.28,0,1,1,0,0,0,.23-.71V5.88Z"/><path class="cls-1" d="M48.09,7.87H45.45a.94.94,0,0,0,1,.92.84.84,0,0,0,.82-.48H48a1.48,1.48,0,0,1-.57.78,1.67,1.67,0,0,1-1,.3,1.78,1.78,0,0,1-.89-.22,1.61,1.61,0,0,1-.61-.63,1.88,1.88,0,0,1-.22-.93,2,2,0,0,1,.21-.94A1.61,1.61,0,0,1,45.53,6a1.87,1.87,0,0,1,.9-.22,1.72,1.72,0,0,1,.88.22,1.48,1.48,0,0,1,.59.6,1.79,1.79,0,0,1,.22.88A1.83,1.83,0,0,1,48.09,7.87Zm-.72-.57a.85.85,0,0,0-.28-.64,1,1,0,0,0-.69-.24.88.88,0,0,0-.63.24,1,1,0,0,0-.32.64Z"/><path class="cls-1" d="M50.41,9.25a1.24,1.24,0,0,1-.51-.41.93.93,0,0,1-.2-.56h.74a.47.47,0,0,0,.21.36.76.76,0,0,0,.48.15.91.91,0,0,0,.47-.11.35.35,0,0,0,.16-.3.31.31,0,0,0-.18-.29A4.53,4.53,0,0,0,51,7.88a4.6,4.6,0,0,1-.63-.21,1.08,1.08,0,0,1-.43-.3.81.81,0,0,1-.18-.55.89.89,0,0,1,.17-.51A1.12,1.12,0,0,1,50.38,6a1.94,1.94,0,0,1,.7-.13,1.47,1.47,0,0,1,1,.3,1.08,1.08,0,0,1,.38.81h-.71a.58.58,0,0,0-.19-.37.86.86,0,0,0-.89,0,.33.33,0,0,0-.15.28.31.31,0,0,0,.1.24.57.57,0,0,0,.24.14l.43.14a5.72,5.72,0,0,1,.62.2,1,1,0,0,1,.41.31.81.81,0,0,1,.19.53.9.9,0,0,1-.17.53,1.12,1.12,0,0,1-.46.36,1.68,1.68,0,0,1-.7.13A1.86,1.86,0,0,1,50.41,9.25Z"/><path class="cls-1" d="M54.83,9.25a1.24,1.24,0,0,1-.51-.41.87.87,0,0,1-.2-.56h.74a.47.47,0,0,0,.21.36.73.73,0,0,0,.48.15A.91.91,0,0,0,56,8.68a.35.35,0,0,0,.16-.3A.31.31,0,0,0,56,8.09a4.53,4.53,0,0,0-.59-.21,4.6,4.6,0,0,1-.63-.21,1.08,1.08,0,0,1-.43-.3.81.81,0,0,1-.18-.55.89.89,0,0,1,.17-.51A1.06,1.06,0,0,1,54.8,6a1.94,1.94,0,0,1,.7-.13,1.42,1.42,0,0,1,1,.3,1.06,1.06,0,0,1,.39.81h-.72a.53.53,0,0,0-.18-.37.86.86,0,0,0-.89,0,.32.32,0,0,0,0,.52.57.57,0,0,0,.24.14l.43.14a5.72,5.72,0,0,1,.62.2,1,1,0,0,1,.41.31.76.76,0,0,1,.18.53.9.9,0,0,1-.16.53,1.12,1.12,0,0,1-.46.36,1.68,1.68,0,0,1-.7.13A1.86,1.86,0,0,1,54.83,9.25Z"/><path class="cls-1" d="M61.87,7.87H59.23a.94.94,0,0,0,1,.92A.84.84,0,0,0,61,8.31h.77a1.48,1.48,0,0,1-.57.78,1.67,1.67,0,0,1-1,.3,1.75,1.75,0,0,1-.89-.22,1.61,1.61,0,0,1-.61-.63,1.88,1.88,0,0,1-.22-.93,2,2,0,0,1,.21-.94A1.61,1.61,0,0,1,59.31,6a1.87,1.87,0,0,1,.9-.22,1.66,1.66,0,0,1,.87.22,1.45,1.45,0,0,1,.6.6,1.79,1.79,0,0,1,.21.88A1.89,1.89,0,0,1,61.87,7.87Zm-.72-.57a.82.82,0,0,0-.29-.64,1,1,0,0,0-.68-.24.88.88,0,0,0-.63.24,1,1,0,0,0-.32.64Z"/><path class="cls-1" d="M65.86,5.26a1.24,1.24,0,0,1,.39,1,1.15,1.15,0,0,1-.4,1,1.7,1.7,0,0,1-1.07.32l0,.49h-.63l0-1h.21a2.22,2.22,0,0,0,.93-.16.64.64,0,0,0,.33-.63.7.7,0,0,0-.2-.52.73.73,0,0,0-.53-.19.76.76,0,0,0-.53.19.66.66,0,0,0-.19.51h-.68a1.37,1.37,0,0,1,.17-.68,1.18,1.18,0,0,1,.49-.45,1.58,1.58,0,0,1,.74-.17A1.47,1.47,0,0,1,65.86,5.26Zm-1.75,4A.44.44,0,0,1,64,8.92a.41.41,0,0,1,.13-.32.44.44,0,0,1,.33-.13.44.44,0,0,1,.32.13.44.44,0,0,1,.13.32.49.49,0,0,1-.13.33.44.44,0,0,1-.32.13A.44.44,0,0,1,64.11,9.25Z"/></g></g></svg>